<?xml version="1.0" encoding="iso-8859-1"?>
<!-- Generator: Adobe Illustrator 19.0.0, SVG Export Plug-In . SVG Version: 6.00 Build 0)  -->
<svg version="1.1" id="Capa_1" xmlns="http://www.w3.org/2000/svg" xmlns:xlink="http://www.w3.org/1999/xlink" x="0px" y="0px"
	 viewBox="0 0 60.051 60.051" style="enable-background:new 0 0 60.051 60.051;" xml:space="preserve">
<g>
	<path d="M56.963,32.026H55.14c-1.703,0-3.088,1.385-3.088,3.088v3.912h-10v-6.219c3.646-1.177,5.957-6.052,5.957-12.781
		c0-7.235-2.669-12.333-6.8-12.988c-0.052-0.008-0.104-0.012-0.157-0.012h-40c-0.481,0-0.893,0.343-0.982,0.816l-0.001,0
		c-0.02,0.107-0.472,2.648,1.243,4.714c1.138,1.371,2.92,2.169,5.292,2.395c-0.357,1.59-0.552,3.31-0.552,5.075
		c0,7.29,3.075,13,7,13h21v12.967c0,1.672,1.36,3.033,3.033,3.033h1.935c1.308,0,2.415-0.837,2.84-2h10.193v2.912
		c0,1.703,1.385,3.088,3.088,3.088h1.823c1.703,0,3.088-1.385,3.088-3.088V35.114C60.051,33.411,58.666,32.026,56.963,32.026z
		 M40.967,9.026c2.397,0.436,4.788,3.683,5.018,10h-20.52l-3.707-3.707c-0.188-0.188-0.442-0.293-0.707-0.293h-2h-0.349h-3.985
		h-1.07c-0.009-0.014-0.02-0.028-0.029-0.042c-0.102-0.164-0.216-0.329-0.34-0.495c-0.067-0.09-0.142-0.18-0.215-0.27
		c-0.033-0.041-0.064-0.082-0.098-0.123c-0.04-0.047-0.081-0.094-0.123-0.141c-0.044-0.05-0.08-0.099-0.125-0.149
		c-0.017-0.019-0.039-0.032-0.058-0.05c-0.112-0.121-0.229-0.242-0.352-0.364c-0.079-0.078-0.159-0.155-0.241-0.232
		c-0.199-0.186-0.409-0.373-0.633-0.56c-0.18-0.151-0.368-0.298-0.558-0.445c-0.087-0.067-0.173-0.134-0.263-0.201
		C9.099,10.823,7.347,9.82,5.766,9.026H40.967z M14.051,18.692c0,2.09-0.6,3.471-1,4.073c-0.4-0.603-1-1.983-1-4.073
		c0-0.806,0.087-1.489,0.21-2.053c0.004,0.006,0.012,0.008,0.017,0.013c0.084,0.103,0.186,0.184,0.302,0.246
		c0.025,0.013,0.049,0.023,0.076,0.034c0.124,0.054,0.255,0.092,0.396,0.092h0.862C14.005,17.558,14.051,18.116,14.051,18.692z
		 M2.864,11.296c-0.482-0.574-0.696-1.218-0.791-1.773c1.508,0.648,3.509,1.606,5.354,2.716c-0.098,0.246-0.188,0.501-0.276,0.759
		C5.147,12.87,3.708,12.299,2.864,11.296z M8.051,20.026c0-2.422,0.382-4.745,1.086-6.671c0.02,0.014,0.04,0.028,0.06,0.042
		c0.617,0.445,1.133,0.879,1.576,1.303c-0.351,0.861-0.723,2.197-0.723,3.992c0,3.374,1.402,6.333,3,6.333s3-2.959,3-6.333
		c0-0.571-0.048-1.125-0.124-1.667h1.92c0.135,0.988,0.204,1.994,0.204,3c0,6.195-2.688,11-5,11
		C10.687,31.026,8.051,26.508,8.051,20.026z M16.724,31.026c0.028-0.033,0.053-0.075,0.081-0.109
		c0.191-0.231,0.376-0.479,0.554-0.742c0.03-0.044,0.061-0.082,0.091-0.127c0.205-0.313,0.399-0.65,0.585-1.003
		c0.05-0.094,0.095-0.195,0.143-0.292c0.134-0.271,0.262-0.55,0.384-0.84c0.052-0.124,0.103-0.249,0.153-0.376
		c0.119-0.304,0.229-0.618,0.334-0.94c0.034-0.106,0.072-0.208,0.104-0.315c0.131-0.43,0.249-0.872,0.354-1.328
		c0.021-0.091,0.036-0.185,0.056-0.276c0.079-0.371,0.15-0.749,0.211-1.135c0.024-0.155,0.045-0.311,0.067-0.467
		c0.047-0.349,0.086-0.703,0.117-1.061c0.013-0.152,0.029-0.303,0.039-0.457c0.034-0.504,0.056-1.014,0.056-1.532v-3h0.586
		l3.707,3.707c0.188,0.188,0.442,0.293,0.707,0.293h20.934c-0.23,6.317-2.621,9.564-5.018,10h-6.916H16.724z M39.019,47.026h-1.935
		c-0.569,0-1.033-0.463-1.033-1.033V33.026h4v6v6.967C40.051,46.562,39.588,47.026,39.019,47.026z M42.051,45.026v-4h10v4H42.051z
		 M58.051,49.937c0,0.6-0.488,1.088-1.088,1.088H55.14c-0.6,0-1.088-0.488-1.088-1.088v-2.912v-8v-3.912
		c0-0.6,0.488-1.088,1.088-1.088h1.823c0.6,0,1.088,0.488,1.088,1.088V49.937z"/>
	<circle cx="32.051" cy="27.026" r="1"/>
	<circle cx="28.051" cy="27.026" r="1"/>
	<circle cx="24.051" cy="27.026" r="1"/>
</g>
<g>
</g>
<g>
</g>
<g>
</g>
<g>
</g>
<g>
</g>
<g>
</g>
<g>
</g>
<g>
</g>
<g>
</g>
<g>
</g>
<g>
</g>
<g>
</g>
<g>
</g>
<g>
</g>
<g>
</g>
</svg>
