<?xml version="1.0"?>
<svg xmlns="http://www.w3.org/2000/svg" width="512" height="512" viewBox="0 0 128 128"><g><path d="M121.5,48.79a1.75,1.75,0,0,0,0-3.5h-7.1V31.83h7.1a1.75,1.75,0,0,0,0-3.5h-7.1V15.35a1.751,1.751,0,0,0-1.75-1.75H99.67V6.5a1.75,1.75,0,0,0-3.5,0v7.1H82.71V6.5a1.75,1.75,0,0,0-3.5,0v7.1H65.75V6.5a1.75,1.75,0,0,0-3.5,0v7.1H48.79V6.5a1.75,1.75,0,0,0-3.5,0v7.1H31.83V6.5a1.75,1.75,0,0,0-3.5,0v7.1H15.35a1.751,1.751,0,0,0-1.75,1.75V28.33H6.5a1.75,1.75,0,0,0,0,3.5h7.1V45.29H6.5a1.75,1.75,0,0,0,0,3.5h7.1V62.25H6.5a1.75,1.75,0,0,0,0,3.5h7.1V79.21H6.5a1.75,1.75,0,0,0,0,3.5h7.1V96.17H6.5a1.75,1.75,0,0,0,0,3.5h7.1v12.98a1.751,1.751,0,0,0,1.75,1.75H28.33v7.1a1.75,1.75,0,0,0,3.5,0v-7.1H45.29v7.1a1.75,1.75,0,0,0,3.5,0v-7.1H62.25v7.1a1.75,1.75,0,0,0,3.5,0v-7.1H79.21v7.1a1.75,1.75,0,0,0,3.5,0v-7.1H96.17v7.1a1.75,1.75,0,0,0,3.5,0v-7.1h12.98a1.751,1.751,0,0,0,1.75-1.75V99.67h7.1a1.75,1.75,0,0,0,0-3.5h-7.1V82.71h7.1a1.75,1.75,0,0,0,0-3.5h-7.1V65.75h7.1a1.75,1.75,0,0,0,0-3.5h-7.1V48.79ZM110.9,110.9H17.1V17.1h93.8Z"/><path d="M103.65,92.9a1.751,1.751,0,0,0-1.75,1.75v7.25H94.65a1.75,1.75,0,0,0,0,3.5h9a1.751,1.751,0,0,0,1.75-1.75v-9A1.751,1.751,0,0,0,103.65,92.9Z"/><path d="M24.35,105.4h9a1.75,1.75,0,0,0,0-3.5H26.1V94.65a1.75,1.75,0,0,0-3.5,0v9A1.751,1.751,0,0,0,24.35,105.4Z"/><path d="M94.65,26.1h7.25v7.25a1.75,1.75,0,0,0,3.5,0v-9a1.751,1.751,0,0,0-1.75-1.75h-9a1.75,1.75,0,0,0,0,3.5Z"/><path d="M24.35,35.1a1.751,1.751,0,0,0,1.75-1.75V26.1h7.25a1.75,1.75,0,0,0,0-3.5h-9a1.751,1.751,0,0,0-1.75,1.75v9A1.751,1.751,0,0,0,24.35,35.1Z"/><path d="M43.9,75.375a11.455,11.455,0,0,0,8.287-3.583l-2.815-2.625A7.3,7.3,0,0,1,43.9,71.728a7.732,7.732,0,0,1,0-15.456,7.23,7.23,0,0,1,5.44,2.561l2.847-2.656a11.437,11.437,0,1,0-8.287,19.2Z"/><path d="M59.264,67.6h5.568c4.7,0,8.223-3.008,8.223-7.3s-3.519-7.3-8.223-7.3H55.265V74.991h4Zm0-10.912h5.12c2.72,0,4.608,1.376,4.608,3.616S67.1,63.92,64.384,63.92h-5.12Z"/><path d="M85.952,75.375a9.324,9.324,0,0,0,9.7-9.759V53.009H91.679V65.488c0,3.648-2.367,6.271-5.727,6.271-3.328,0-5.7-2.623-5.7-6.271V53.009h-4V65.616A9.342,9.342,0,0,0,85.952,75.375Z"/></g></svg>
