<svg id="Capa_1" enable-background="new 0 0 512 512" height="512" viewBox="0 0 512 512" width="512" xmlns="http://www.w3.org/2000/svg"><g><path d="m331 437v-76h-150v76c0 41.355 33.645 75 75 75s75-33.645 75-75zm-120 0v-46h90v46c0 24.813-20.187 45-45 45s-45-20.187-45-45z"/><path d="m422 181v-30h-63.705c-7.759-63.497-39.502-151-102.295-151-62.78 0-94.504 87.24-102.295 151h-63.705v29.99h61.299c-.196 4.978-.299 9.98-.299 15.01 0 33.774 18.987 85.677 33.728 135h142.545c14.258-47.709 33.727-101.21 33.727-135 0-5.03-.103-10.032-.299-15zm-117.106 120h-97.787c-8.191-26.016-26.107-78.309-26.107-105 0-66.941 26.436-166 75-166 51.977 0 75 108.128 75 166 0 26.547-17.581 77.921-26.106 105z"/><path d="m452 151h60v30h-60z"/><path d="m0 151h60v30h-60z"/></g></svg>