<svg height="512" viewBox="0 0 56 48" width="512" xmlns="http://www.w3.org/2000/svg"><g id="Page-1" fill="none" fill-rule="evenodd"><g id="017---Dark-Web" fill="rgb(0,0,0)" fill-rule="nonzero"><path id="Shape" d="m38.94 22.6-2-8.67c-.367957-1.4754108-1.7815918-2.4421823-3.29-2.25-1.8751179.2209551-3.761925.3278185-5.65.32-1.8747325.0062044-3.748133-.1006563-5.61-.32-1.5084082-.1921823-2.922043.7745892-3.29 2.25l-2 8.67c.66.4 3.18 1.4 10.9 1.4s10.24-1 10.94-1.4z"/><path id="Shape" d="m39.88 26.61-.47-2c-1.61.7-4.86 1.39-11.41 1.39s-9.8-.69-11.41-1.4l-.47 2c.88.45 3.6 1.4 11.88 1.4s11.05-.95 11.88-1.39z"/><path id="Shape" d="m33.64 39.5c1.3107791.313863 2.652294.4815523 4 .5.3045553.0145544.5991117-.1106321.8-.34.5054462-.938777.7014367-2.0132248.56-3.07z"/><path id="Shape" d="m28 34c-4.9639016.0533245-9.9121731-.5656299-14.71-1.84-.72 2.55-.07 5.83 2 10 .3957475.9425633 1.2294352 1.630449 2.23 1.84 1.3973015.052567 2.7884709-.2106272 4.07-.77l.68-.23c3.7127688-1.2800361 7.7472312-1.2800361 11.46 0l.68.23c1.284799.5601927 2.6794023.8233898 4.08.77.9829115-.2054962 1.8039371-.8772444 2.2-1.8 2.09-4.17 2.74-7.45 2-10-4.7932085 1.259087-9.734601 1.8645674-14.69 1.8zm-2.66 6.74c-2.2545387.7779182-4.6157088 1.2029289-7 1.26-.8994778.0153863-1.7583842-.373691-2.34-1.06-1.57-1.89-.93-5.69-.85-6.12.0599658-.3161148.2683726-.5840664.56-.72.2830476-.1426286.6169524-.1426286.9 0l8.83 4.8c.3625697.1945973.5689213.5914274.52 1-.0324989.3742226-.271971.6986687-.62.84zm14.62.2c-.5816158.686309-1.4405222 1.0753863-2.34 1.06-2.3842912-.0570711-4.7454613-.4820818-7-1.26-.3697776-.1322081-.6279457-.4686089-.66-.86-.0489213-.4085726.1574303-.8054027.52-1l8.83-4.8c.2830476-.1426286.6169524-.1426286.9 0 .2916274.1359336.5000342.4038852.56.72.12.45.76 4.25-.77 6.14z"/><path id="Shape" d="m17.58 39.66c.2008883.2293679.4954447.3545544.8.34 1.347706-.0184477 2.6892209-.186137 4-.5l-5.38-2.91c-.1353463 1.0588945.0676677 2.1334682.58 3.07z"/><path id="Shape" d="m28 32c12.39 0 20-3.2 20-5.5 0-1.2-2.2-2.87-7-4.09l1 4.36c.0541798.2290187.0258516.4698085-.08.68-.41.76-2.53 2.55-13.92 2.55s-13.51-1.79-13.89-2.55c-.1058516-.2101915-.1341798-.4509813-.08-.68l1-4.36c-4.85 1.22-7 2.89-7 4.09-.03 2.3 7.58 5.5 19.97 5.5z"/><path id="Shape" d="m0 45c0 1.6568542 1.34314575 3 3 3h50c1.6568542 0 3-1.3431458 3-3v-37h-56zm15.56-24.76 1.6-6.77c.6004402-2.4696681 2.9581015-4.09593809 5.48-3.78 1.7783547.21611652 3.5685876.3196561 5.36.31 1.7914124.0096561 3.5816453-.09388348 5.36-.31 2.5218985-.31593809 4.8795598 1.3103319 5.48 3.78l1.6 6.77c3.83.85 9.56 2.76 9.56 6.26 0 2.11-2.12 3.79-5.39 5 .9 3.07.21 6.84-2.13 11.52-.6660217 1.526452-2.0576946 2.6134613-3.7 2.89-1.71103.1090909-3.4237482-.1854966-5-.86l-.65-.22c-3.311324-1.139826-6.908676-1.139826-10.22 0l-.65.22c-1.3231616.5333339-2.7254105.8441939-4.15.92-.2877093-.0000861-.575066-.0201342-.86-.06-1.6563541-.2801364-3.0613341-1.373316-3.74-2.91-2.33-4.67-3-8.44-2.12-11.51-3.27-1.2-5.39-2.88-5.39-4.99 0-3.5 5.73-5.41 9.56-6.26zm-13.56-9.24c0-.5522847.44771525-1 1-1s1 .4477153 1 1v3c0 .5522847-.44771525 1-1 1s-1-.4477153-1-1zm0 7c0-.5522847.44771525-1 1-1s1 .4477153 1 1v15c0 .5522847-.44771525 1-1 1s-1-.4477153-1-1z"/><path id="Shape" d="m55 0h-54c-.55228475 0-1 .44771525-1 1v5h56v-5c0-.55228475-.4477153-1-1-1zm-52 4c-.55228475 0-1-.44771525-1-1s.44771525-1 1-1 1 .44771525 1 1-.44771525 1-1 1zm4 0c-.55228475 0-1-.44771525-1-1s.44771525-1 1-1 1 .44771525 1 1-.44771525 1-1 1zm4 0c-.5522847 0-1-.44771525-1-1s.4477153-1 1-1 1 .44771525 1 1-.4477153 1-1 1zm42 0h-6c-.5522847 0-1-.44771525-1-1s.4477153-1 1-1h6c.5522847 0 1 .44771525 1 1s-.4477153 1-1 1z"/></g></g></svg>