<svg enable-background="new 0 0 57.692 57.692" height="512" viewBox="0 0 57.692 57.692" width="512" xmlns="http://www.w3.org/2000/svg"><path d="m45.506 52.508c-.699 0-1.368-.4-1.679-1.078-4.423-9.652-3.004-15.045-1.632-20.262.672-2.551 1.307-4.96 1.262-7.918-.016-1.02.797-1.858 1.816-1.874h.029c1.006 0 1.83.808 1.846 1.818.053 3.464-.677 6.235-1.382 8.916-1.263 4.799-2.456 9.332 1.417 17.783.425.927.018 2.022-.909 2.447-.249.113-.51.168-.768.168z"/><path d="m47.309 57.692h-4.053c-9.281 0-9.549-26.294-9.549-29.292 0-1.02.826-1.846 1.846-1.846s1.847.827 1.847 1.846c-.001 15.862 3.411 25.6 5.856 25.6h4.053c1.02 0 1.846.826 1.846 1.846s-.827 1.846-1.846 1.846z"/><path d="m26.182 35.42c-.427 0-.856-.148-1.206-.449-.771-.666-.857-1.832-.191-2.604.682-.791 4.084-5.03 4.084-10.93 0-1.02.827-1.846 1.847-1.846s1.846.827 1.846 1.846c0 5.583-2.574 10.553-4.982 13.342-.365.424-.88.641-1.398.641z"/><path d="m41.209 20.618c-1.02 0-1.846-.827-1.846-1.846s.826-1.846 1.846-1.846c12.791-.001 12.791-2.229 12.791-6.667 0-1.28 0-2.489-5.697-2.489-.55 0-1.071-.246-1.422-.669-1.613-1.95-5.614-3.766-8.984-3.35-2.125.259-3.664 1.35-4.573 3.241-2.536 5.272-2.036 7.787-1.668 8.029 0 0 .034.016.128.016h2.641c1.068 0 1.429 0 1.429-5.874 0-1.02.827-1.846 1.847-1.846s1.846.827 1.846 1.846c0 5.133 0 9.566-5.121 9.566h-2.641c-1.399 0-2.574-.643-3.308-1.811-1.471-2.339-.93-6.433 1.521-11.527 1.449-3.011 4.096-4.895 7.453-5.305 4.395-.536 9.154 1.525 11.663 3.995 3.233.038 8.58.502 8.58 6.178-.002 8.035-3.699 10.359-16.485 10.359z"/><path d="m43.43 11.831c-.66 0-1.301-.27-1.771-.73-.46-.46-.729-1.11-.729-1.77s.27-1.3.729-1.77c.931-.93 2.61-.93 3.54 0 .46.47.73 1.11.73 1.77s-.271 1.3-.73 1.77c-.47.46-1.109.73-1.769.73z"/><path d="m35.43 57.692h-10.98c-1.02 0-1.846-.827-1.846-1.847s.826-1.845 1.846-1.845c2.67 0 5.523-1.753 5.523-6.674 0-4.761-2.084-7.879-4.968-12.193-.8-1.197-1.628-2.436-2.495-3.828-.273-.439-.35-.973-.211-1.47 1.245-4.48.334-8.073-.628-10.354l-1.482 1.995c-.348.469-.898.746-1.482.746h-3.747c-.584 0-1.134-.276-1.482-.746l-1.481-1.994c-.963 2.281-1.873 5.875-.628 10.354.138.498.062 1.031-.212 1.47-.867 1.392-1.693 2.629-2.493 3.825-2.885 4.315-4.97 7.435-4.97 12.196-.002 4.92 2.851 6.673 5.521 6.673h4.408c4.738 0 7.217-3.338 7.217-6.635 0-2.857-1.917-3.002-2.301-3.002-1.183 0-1.694 1.104-1.694 1.666 0 1.02-.827 1.846-1.846 1.846s-1.846-.826-1.846-1.846c0-2.577 2.06-5.359 5.386-5.359 2.979 0 5.994 2.301 5.994 6.695 0 5.006-3.824 10.327-10.91 10.327h-4.408c-4.587 0-9.215-3.206-9.215-10.366 0-5.883 2.468-9.574 5.592-14.248.652-.976 1.323-1.979 2.01-3.061-1.176-4.982-.4-9.885 2.311-14.584.07-.121.126-.218.165-.291.296-.561.859-.931 1.492-.98.633-.051 1.246.231 1.624.74l2.693 3.626h1.891l2.693-3.626c.378-.51.993-.791 1.624-.74.632.049 1.195.418 1.491.979.039.073.096.17.165.291 2.712 4.699 3.489 9.601 2.312 14.585.688 1.084 1.36 2.088 2.012 3.063 3.123 4.673 5.591 8.364 5.591 14.245 0 2.824-.72 5.034-1.874 6.674h3.639c1.02 0 1.847.826 1.847 1.846s-.829 1.847-1.848 1.847z"/><path d="m16.833 31.873c-2.157 0-3.784-1.269-3.784-2.951 0-1.02.827-1.846 1.846-1.846.748 0 1.391.444 1.682 1.083.139.024.372.024.511 0 .291-.639.934-1.083 1.682-1.083 1.02 0 1.846.827 1.846 1.846-.001 1.682-1.627 2.951-3.783 2.951z"/></svg>