<svg height="512" viewBox="0 0 48 48" width="512" xmlns="http://www.w3.org/2000/svg"><g id="Face_Scanner" data-name="Face Scanner"><path d="m3 9v-6h6a1 1 0 0 0 0-2h-7a1 1 0 0 0 -1 1v7a1 1 0 0 0 2 0z"/><path d="m39 3h6v6a1 1 0 0 0 2 0v-7a1 1 0 0 0 -1-1h-7a1 1 0 0 0 0 2z"/><path d="m9 45h-6v-6a1 1 0 0 0 -2 0v7a1 1 0 0 0 1 1h7a1 1 0 0 0 0-2z"/><path d="m45 39v6h-6a1 1 0 0 0 0 2h7a1 1 0 0 0 1-1v-7a1 1 0 0 0 -2 0z"/><path d="m47 26h-12.56l.36-2a4 4 0 0 0 1.05-7.91c-.7-10.55-14-15.1-21-6.84a11.91 11.91 0 0 0 -2.74 6.84 4 4 0 0 0 1 7.91l.36 2h-12.47a1 1 0 0 0 0 2h13.07a10.49 10.49 0 0 0 3.72 5c-.54 2.25-2.32 7-7.79 7a1 1 0 0 0 0 2c5.45 0 8.44-3.91 9.58-8a10.58 10.58 0 0 0 8.84 0c1.14 4.06 4.13 8 9.58 8a1 1 0 0 0 0-2c-5.47 0-7.25-4.77-7.79-7a10.57 10.57 0 0 0 3.73-5h13.06a1 1 0 0 0 0-2zm-11.84-4c.68-3.82.55-3 .64-3.81a2 2 0 0 1 -.64 3.81zm-23-3.81a37.73 37.73 0 0 0 .68 3.81 2 2 0 0 1 -.64-3.83zm3.42 7.81-1.31-7.33a9.85 9.85 0 0 1 2.15-8.08c6.51-7.77 19.07-1.78 17.31 8.08l-1.31 7.33c-.02.06-16.83 0-16.84 0zm.64 2h15.56a8.57 8.57 0 0 1 -15.56 0z"/></g></svg>