<?xml version="1.0" encoding="UTF-8" standalone="no"?>
<svg
   xmlns:dc="http://purl.org/dc/elements/1.1/"
   xmlns:cc="http://creativecommons.org/ns#"
   xmlns:rdf="http://www.w3.org/1999/02/22-rdf-syntax-ns#"
   xmlns:svg="http://www.w3.org/2000/svg"
   xmlns="http://www.w3.org/2000/svg"
   xmlns:sodipodi="http://sodipodi.sourceforge.net/DTD/sodipodi-0.dtd"
   xmlns:inkscape="http://www.inkscape.org/namespaces/inkscape"
   id="Layer_1"
   enable-background="new 0 0 512 512"
   height="512"
   viewBox="0 0 512 512"
   width="512"
   version="1.1"
   sodipodi:docname="sd_card.svg"
   inkscape:version="1.0.2 (e86c870879, 2021-01-15, custom)">
  <metadata
     id="metadata9">
    <rdf:RDF>
      <cc:Work
         rdf:about="">
        <dc:format>image/svg+xml</dc:format>
        <dc:type
           rdf:resource="http://purl.org/dc/dcmitype/StillImage" />
      </cc:Work>
    </rdf:RDF>
  </metadata>
  <defs
     id="defs7">
    <inkscape:path-effect
       effect="simplify"
       id="path-effect970"
       is_visible="true"
       lpeversion="1"
       steps="1"
       threshold="0.000408163"
       smooth_angles="360"
       helper_size="0"
       simplify_individual_paths="false"
       simplify_just_coalesce="false" />
    <inkscape:path-effect
       effect="simplify"
       id="path-effect966"
       is_visible="true"
       lpeversion="1"
       steps="1"
       threshold="0.000408163"
       smooth_angles="360"
       helper_size="0"
       simplify_individual_paths="false"
       simplify_just_coalesce="false" />
    <inkscape:path-effect
       effect="simplify"
       id="path-effect962"
       is_visible="true"
       lpeversion="1"
       steps="1"
       threshold="0.000408163"
       smooth_angles="360"
       helper_size="0"
       simplify_individual_paths="false"
       simplify_just_coalesce="false" />
    <inkscape:path-effect
       effect="simplify"
       id="path-effect958"
       is_visible="true"
       lpeversion="1"
       steps="1"
       threshold="0.000408163"
       smooth_angles="360"
       helper_size="0"
       simplify_individual_paths="false"
       simplify_just_coalesce="false" />
  </defs>
  <sodipodi:namedview
     pagecolor="#ffffff"
     bordercolor="#666666"
     borderopacity="1"
     objecttolerance="10"
     gridtolerance="10"
     guidetolerance="10"
     inkscape:pageopacity="0"
     inkscape:pageshadow="2"
     inkscape:window-width="2764"
     inkscape:window-height="1674"
     id="namedview5"
     showgrid="false"
     inkscape:zoom="1.96875"
     inkscape:cx="256"
     inkscape:cy="256"
     inkscape:window-x="629"
     inkscape:window-y="205"
     inkscape:window-maximized="0"
     inkscape:current-layer="Layer_1" />
  <path
     d="m 80.809,391.907 c -3.272,1.085 -5.481,4.145 -5.481,7.593 V 469 c 0,23.71 19.29,43 43,43 h 275.346 c 23.71,0 43,-19.29 43,-43 L 435.65813,200.63492 445.30892,54.174603 C 446.86788,30.51591 440.22421,9.0230249 416.53114,8.1269841 L 201.63786,0 C 177.94479,-0.89604076 159.53162,19.413575 157.11405,43 L 149.495,117.33333 V 152.183 c 0,9.114 -3.927,16.724 -11.355,22.005 l -44.729,31.8 C 81.75,214.279 75.327,226.725 75.327,241.034 V 320 c 0,4.418 3.582,8 8,8 h 26.672 v 54.226 z M 393.673,496 H 118.327 c -14.888,0 -27,-12.112 -27,-27 v -4.138 c 48.425,-5.474 105.157,-8.366 164.673,-8.366 59.516,0 116.248,2.892 164.673,8.366 V 469 c 0,14.888 -12.112,27 -27,27 z M 117.999,311.999 H 91.327 v -70.966 c 0,-9.115 3.927,-16.725 11.355,-22.006 l 44.729,-31.8 c 11.662,-8.291 18.084,-20.737 18.084,-35.045 l 0.50794,-33.83279 8.63492,-72.809527 c 1.75337,-14.784392 12.12046,-29.533623 27,-29.031746 l 210.82879,7.111111 c 14.87954,0.501876 18.44299,11.13636 17.34921,25.984127 L 420.673,195.55556 V 448.757 c -48.615,-5.409 -105.309,-8.26 -164.673,-8.26 -59.364,0 -116.058,2.852 -164.673,8.26 v -43.481 l 29.19,-9.683 c 3.272,-1.085 5.481,-4.145 5.481,-7.593 v -68.001 c 10e-4,-4.418 -3.581,-8 -7.999,-8 z m 103.169,-206 h 143.833 c 9.649,0 17.499,-7.851 17.499,-17.5 V 59.498 c 0,-9.649 -7.85,-17.499 -17.499,-17.499 H 221.168 c -9.649,0 -17.5,7.85 -17.5,17.499 v 29.001 c 0,9.649 7.851,17.5 17.5,17.5 z m 80.199,-16 h -16.566 v -32 h 16.566 z m 16,-32 h 16.566 v 32 h -16.566 z m -48.566,32 h -16.565 v -32 h 16.565 z M 366.5,59.498 v 29.001 c 0,0.813 -0.687,1.5 -1.499,1.5 h -15.067 v -32 h 15.067 c 0.812,0 1.499,0.687 1.499,1.499 z m -146.832,0 c 0,-0.813 0.687,-1.499 1.5,-1.499 h 15.067 v 32 h -15.067 c -0.813,0 -1.5,-0.687 -1.5,-1.5 z m 42.919,225.727 c 0,-15.472 -7.582,-17.963 -23.354,-21.719 -15.045,-3.583 -35.648,-8.489 -35.648,-37.284 0,-20.678 16.823,-37.501 37.501,-37.501 20.679,0 37.502,16.823 37.502,37.501 0,4.418 -3.582,8 -8,8 -4.418,0 -8,-3.582 -8,-8 0,-11.855 -9.646,-21.501 -21.502,-21.501 -11.855,0 -21.501,9.646 -21.501,21.501 0,15.472 7.582,17.963 23.354,21.719 15.045,3.583 35.648,8.489 35.648,37.284 0,20.678 -16.823,37.501 -37.502,37.501 -20.678,0 -37.501,-16.823 -37.501,-37.501 0,-4.418 3.582,-8 8,-8 4.418,0 8,3.582 8,8 0,11.855 9.646,21.501 21.501,21.501 11.856,0 21.502,-9.646 21.502,-21.501 z m 96.91,-82.955 c -19.047,-15.1 -44.454,-16.247 -56.885,-13.338 -3.618,0.848 -6.176,4.073 -6.176,7.789 v 118.005 c 0,3.553 2.343,6.68 5.753,7.678 4.306,1.261 9.407,1.938 14.907,1.938 13.188,0 28.652,-3.901 40.84,-13.033 11.244,-8.426 24.647,-24.908 24.647,-55.586 10e-4,-29.051 -12.554,-45.103 -23.086,-53.453 z m -11.155,96.234 c -11.769,8.817 -26.338,10.571 -35.905,9.603 V 203.74 c 9.683,-0.451 25.169,1.591 37.121,11.067 11.298,8.957 17.026,22.724 17.026,40.915 0,19.318 -6.138,33.712 -18.242,42.782 z"
     id="path2"
     sodipodi:nodetypes="cssssscsssscsccssscccssscscssscsccscssssccscccscsssssssssscccccccccccccccsssccssssccsssscssssssscsssssssccsscscccccccsc" />
  <path
     style="font-variation-settings:normal;opacity:1;vector-effect:none;fill:none;fill-opacity:1;stroke:#000000;stroke-width:6;stroke-linecap:square;stroke-linejoin:round;stroke-miterlimit:4;stroke-dasharray:none;stroke-dashoffset:1;stroke-opacity:1;paint-order:stroke fill markers;stop-color:#000000;stop-opacity:1"
     d="m 156.23369,143.80085 c 39.20541,-12.161 75.45218,-20.71322 93.067,-6.53944 55.86828,41.3095 114.82927,65.20847 178.3442,63.471"
     id="path834"
     sodipodi:nodetypes="ccc" />
  <path
     style="font-variation-settings:normal;vector-effect:none;fill:none;fill-opacity:1;stroke:#000000;stroke-width:6;stroke-linecap:square;stroke-linejoin:round;stroke-miterlimit:4;stroke-dasharray:none;stroke-dashoffset:1;stroke-opacity:1;paint-order:stroke fill markers;stop-color:#000000"
     d="m 157.53106,127.71564 c 40.05979,-8.60249 76.89094,-14.03909 93.38984,0.46135 52.60736,42.58164 109.63125,69.0992 173.15835,71.96296"
     id="path834-6"
     sodipodi:nodetypes="ccc"
     inkscape:transform-center-x="-0.38824141"
     inkscape:transform-center-y="-4.4604611" />
  <path
     style="fill:none;stroke:#000000;stroke-width:1px;stroke-linecap:butt;stroke-linejoin:miter;stroke-opacity:1"
     d="m 161.80942,144.61923 c 0.48556,-6.86172 0.97113,-13.72343 1.45669,-20.58515"
     id="path956"
     inkscape:path-effect="#path-effect958"
     inkscape:original-d="m 161.80942,144.61923 1.45669,-20.58515" />
  <path
     style="fill:none;stroke:#000000;stroke-width:1px;stroke-linecap:butt;stroke-linejoin:miter;stroke-opacity:1"
     d="m 163.26611,124.03408 c -0.48556,6.86172 -0.97113,13.72343 -1.45669,20.58515"
     id="path960"
     inkscape:path-effect="#path-effect962"
     inkscape:original-d="m 163.26611,124.03408 -1.45669,20.58515" />
  <path
     style="fill:none;stroke:#000000;stroke-width:1px;stroke-linecap:butt;stroke-linejoin:miter;stroke-opacity:1"
     d="m 161.80942,144.61923 c 0.48556,-6.86172 0.97113,-13.72343 1.45669,-20.58515"
     id="path964"
     inkscape:path-effect="#path-effect966"
     inkscape:original-d="m 161.80942,144.61923 1.45669,-20.58515" />
  <path
     style="fill:#ffffff;fill-opacity:1;stroke:#ffffff;stroke-width:20.6;stroke-linecap:butt;stroke-linejoin:miter;stroke-miterlimit:4;stroke-dasharray:none;stroke-opacity:1"
     d="m 156.69703,137.67373 c 0.27801,-3.31936 0.55602,-6.63873 0.83403,-9.95809"
     id="path968"
     inkscape:path-effect="#path-effect970"
     inkscape:original-d="m 156.69703,137.67373 0.83403,-9.95809" />
</svg>
