<?xml version="1.0" encoding="UTF-8" standalone="no"?>
<!-- Generator: Adobe Illustrator 16.0.0, SVG Export Plug-In . SVG Version: 6.00 Build 0)  -->

<svg
   xmlns:dc="http://purl.org/dc/elements/1.1/"
   xmlns:cc="http://creativecommons.org/ns#"
   xmlns:rdf="http://www.w3.org/1999/02/22-rdf-syntax-ns#"
   xmlns:svg="http://www.w3.org/2000/svg"
   xmlns="http://www.w3.org/2000/svg"
   xmlns:sodipodi="http://sodipodi.sourceforge.net/DTD/sodipodi-0.dtd"
   xmlns:inkscape="http://www.inkscape.org/namespaces/inkscape"
   version="1.1"
   id="Layer_1"
   x="0px"
   y="0px"
   width="612px"
   height="612px"
   viewBox="0 0 612 612"
   style="enable-background:new 0 0 612 612;"
   xml:space="preserve"
   sodipodi:docname="tamper_time.svg"
   inkscape:version="0.92.4 (5da689c313, 2019-01-14)"><metadata
   id="metadata39"><rdf:RDF><cc:Work
       rdf:about=""><dc:format>image/svg+xml</dc:format><dc:type
         rdf:resource="http://purl.org/dc/dcmitype/StillImage" /><dc:title /></cc:Work></rdf:RDF></metadata><defs
   id="defs37">















	
	
	
	
</defs><sodipodi:namedview
   pagecolor="#ffffff"
   bordercolor="#666666"
   borderopacity="1"
   objecttolerance="10"
   gridtolerance="10"
   guidetolerance="10"
   inkscape:pageopacity="0"
   inkscape:pageshadow="2"
   inkscape:window-width="2880"
   inkscape:window-height="1586"
   id="namedview35"
   showgrid="true"
   inkscape:zoom="0.38562092"
   inkscape:cx="-567.91525"
   inkscape:cy="306"
   inkscape:window-x="8629"
   inkscape:window-y="744"
   inkscape:window-maximized="1"
   inkscape:current-layer="Layer_1"><inkscape:grid
     type="xygrid"
     id="grid915" /></sodipodi:namedview>
<path
   d="m 342.68929,269.31072 c -37.47351,-37.47286 -87.29512,-58.10965 -140.28982,-58.10965 -52.99471,0 -102.816313,20.63679 -140.289822,58.10965 C 24.638083,306.78423 4,356.60583 4,409.60054 4,462.59524 24.638083,512.41685 62.109648,549.89036 99.583157,587.36322 149.40476,608 202.39947,608 c 52.9947,0 102.81631,-20.63678 140.28982,-58.10964 37.47221,-37.47351 58.10964,-87.29512 58.10964,-140.28982 0,-52.99471 -20.63743,-102.81631 -58.10964,-140.28982 z m -8.78664,271.79235 c -35.12578,35.12644 -81.82811,54.47103 -131.50318,54.47103 -49.67508,0 -96.37741,-19.34459 -131.503838,-54.47103 -35.125134,-35.12513 -54.469731,-81.82746 -54.469731,-131.50253 0,-49.67508 19.344597,-96.37741 54.469731,-131.50254 35.126428,-35.12643 81.828758,-54.47103 131.503838,-54.47103 49.67507,0 96.3774,19.3446 131.50318,54.47103 35.12579,35.12513 54.47038,81.82746 54.47038,131.50254 0,49.67507 -19.34459,96.3774 -54.47038,131.50253 z M 208.61209,290.31253 h -12.4259 v -33.13595 h 12.4259 z m -12.4259,238.57601 h 12.4259 v 33.1353 h -12.4259 z M 83.111463,415.81316 H 49.97551 v -12.4259 h 33.135305 v 12.4259 z m 271.711957,-12.4259 v 12.4259 h -33.1353 v -12.4259 z m -224.07728,-105.46228 -9.94072,-17.21732 10.7609,-6.21327 9.94072,17.21731 z m 143.29628,223.36149 9.94072,17.21731 -10.76155,6.21263 -9.94072,-17.21731 z m -189.540864,-50.79221 6.213275,10.7609 -17.217313,9.94072 -6.213275,-10.7609 z M 320.29284,348.70163 314.07956,337.94072 331.29753,328 l 6.21262,10.7609 z m -46.24782,-50.78249 -10.76091,-6.21327 9.94072,-17.21732 10.76091,6.21328 z m -143.29564,223.36863 10.7609,6.21262 -9.94072,17.21796 -10.7609,-6.21327 z m 189.55059,-50.78962 17.21796,9.94072 -6.21327,10.7609 -17.21732,-9.94072 z M 73.505298,328.01167 90.722611,337.95239 84.509336,348.7133 67.292023,338.77258 Z M 221.8666,409.60054 c 0,-8.56165 -5.55842,-15.84473 -13.25451,-18.44467 V 303.5664 h -12.4259 v 87.58882 c -7.69608,2.59929 -13.25386,9.88237 -13.25386,18.44467 0,10.73432 8.73282,19.46714 19.46714,19.46714 4.92757,0 9.43045,-1.8446 12.86354,-4.87376 l 75.92735,43.80479 6.20938,-10.76285 -75.91502,-43.7983 c 0.24897,-1.23903 0.38188,-2.52279 0.38188,-3.83637 z m -19.46713,7.04123 c -3.88241,0 -7.04124,-3.15883 -7.04124,-7.04123 0,-3.88241 3.15883,-7.04124 7.04124,-7.04124 3.8824,0 7.04123,3.15883 7.04123,7.04124 0,3.8824 -3.15883,7.04123 -7.04123,7.04123 z m 0,-172.3054 c -91.12695,0 -165.264166,74.13722 -165.264166,165.26417 0,91.12695 74.136566,165.26416 165.264166,165.26416 91.12695,0 165.26416,-74.13721 165.26416,-165.26416 0,-91.12695 -74.13721,-165.26417 -165.26416,-165.26417 z m 0,318.10243 c -84.27504,0 -152.838264,-68.56388 -152.838264,-152.83826 0,-84.27439 68.563224,-152.83826 152.838264,-152.83826 84.27503,0 152.83826,68.56387 152.83826,152.83826 0,84.27438 -68.56323,152.83826 -152.83826,152.83826 z"
   id="path2"
   inkscape:connector-curvature="0"
   style="stroke-width:1" />
<g
   id="g4">
</g>
<g
   id="g6">
</g>
<g
   id="g8">
</g>
<g
   id="g10">
</g>
<g
   id="g12">
</g>
<g
   id="g14">
</g>
<g
   id="g16">
</g>
<g
   id="g18">
</g>
<g
   id="g20">
</g>
<g
   id="g22">
</g>
<g
   id="g24">
</g>
<g
   id="g26">
</g>
<g
   id="g28">
</g>
<g
   id="g30">
</g>
<g
   id="g32">
</g>
<path
   id="path846"
   d="m 564.85502,488.56381 -9.66743,-8.95487 c -9.03105,-8.36539 -22.81114,-8.22124 -30.72413,0.3214 l -18.1771,19.62351 -53.03029,-49.12154 28.89657,-31.19595 c 24.80377,12.0056 59.71074,-1.09655 90.97703,-34.85079 33.61741,-36.29244 43.15146,-74.97575 24.2881,-98.55349 C 597.17918,285.53652 520.28107,292.26034 520,292 L 384.51978,88.51452 c -2.55076,-2.362743 -6.32936,-2.665984 -8.99911,-0.730478 l -0.005,-0.0048 c -0.60323,0.438495 -14.80695,10.964444 -15.31192,29.752328 -0.33551,12.46728 5.40659,25.2237 16.93527,38.009 -9.28159,6.22217 -18.30766,13.89223 -26.50872,22.74588 -33.87298,36.56833 -44.09766,80.3159 -23.28327,99.59611 l 111.36362,103.15523 -60.25114,65.04551 c -7.76893,8.38713 -6.8807,21.89476 1.99127,30.11279 l 10.26136,9.50502 c 6.93636,6.42509 16.69593,7.66427 24.35359,3.91805 l 54.05378,50.06959 -13.53059,14.60726 c -7.91298,8.54265 -7.0037,22.29347 2.02736,30.65887 l 9.66743,8.95486 c 9.03105,8.36539 22.81115,8.22124 30.72414,-0.32141 l 68.87967,-74.36064 c 7.90785,-8.5474 6.99838,-22.29837 -2.03267,-30.66377 z m 22.04219,-193.9482 c 10.68548,13.96151 8.27785,41.99418 -19.85439,74.81153 L 458.22467,268.62974 455.7909,231.82521 c -0.12342,-1.86654 -0.9825,-3.64093 -2.38782,-4.94265 l -10.60605,-9.82431 -1.85075,-1.71434 -21.13258,-19.57493 -5.67424,-5.25601 c 0.0174,-0.11446 0.0236,-0.23874 0.0414,-0.35313 0.22112,-1.3237 0.38325,-2.71137 0.49699,-4.15317 0.0624,-0.78061 0.0834,-1.60045 0.11436,-2.4105 0.0155,-0.36776 0.0416,-0.7257 0.0519,-1.09838 0.006,-0.43224 0.007,-0.86942 0.003,-1.31149 -9.6e-4,-0.46694 0.0357,-0.88958 0.0295,-1.36143 -0.002,-0.17882 -0.0581,-0.35209 -0.0753,-0.53572 -0.0317,-1.15712 -0.0899,-2.33881 -0.17534,-3.55498 -0.0565,-0.77933 -0.12296,-1.55855 -0.20003,-2.3476 -0.19106,-1.91054 -0.4358,-3.88012 -0.75478,-5.91849 -0.25293,-1.64163 -0.56687,-3.3025 -0.89141,-4.9732 -0.15004,-0.76345 -0.29479,-1.52197 -0.46074,-2.30016 -2.7683,-13.10545 -7.39877,-26.74282 -12.09354,-38.49183 66.17365,72.32912 137.84142,165.09425 186.67174,172.91272 z M 399.24782,210.88699 c -9.71118,10.48394 -19.30981,14.46406 -24.22821,15.51897 0.68063,-4.98965 3.91097,-14.85934 13.62215,-25.34327 3.74508,-4.04309 7.38,-7.04182 10.6529,-9.26678 -0.007,0.0498 0.0264,0.099 0.0298,0.14872 -0.0331,0.9293 0.1314,1.83665 0.45847,2.71746 0.0722,0.18802 0.15298,0.35608 0.24505,0.54388 0.40667,0.87998 0.9248,1.71409 1.67253,2.4067 l 4.57121,4.23428 c -1.99866,3.12568 -4.34746,6.1507 -7.02385,9.04004 z m -24.95949,-92.05232 c 0.11103,-5.24699 1.96852,-9.52864 4.04354,-12.77931 4.98604,10.65805 11.14605,25.29282 15.77253,39.92377 -1.66273,0.7526 -3.32486,1.58965 -4.99033,2.45157 -10.03251,-10.48604 -15.01042,-20.4189 -14.82574,-29.59603 z m -13.05712,69.27105 c 11.25383,-12.14931 24.0734,-21.92557 36.75589,-28.12869 0.041,0.16848 0.082,0.33694 0.12302,0.50541 1.20428,5.26302 1.92407,9.97474 2.30319,14.27771 -5.862,2.5948 -14.04244,7.46917 -22.38291,16.47332 -15.67728,16.92477 -21.99142,38.65464 -13.51718,46.50426 8.47424,7.84963 29.65808,-0.10657 45.33536,-17.03134 2.65315,-2.86427 4.97277,-5.87905 7.08814,-8.97117 l 10.18181,9.43133 c -3.87484,5.61918 -8.1833,11.00446 -12.85768,16.05079 -28.78504,31.07557 -65.36601,41.9747 -77.62662,30.61779 -12.53581,-11.60228 -5.52161,-47.21419 24.59698,-79.72941 z m -5.11829,97.78168 c 0.30181,-0.0279 0.62954,-0.11587 0.93601,-0.14888 2.08622,-0.22052 4.21961,-0.5558 6.38559,-1.00071 0.36352,-0.0733 0.70449,-0.11169 1.07267,-0.19006 2.54148,-0.56309 5.13614,-1.3006 7.76271,-2.15767 0.70193,-0.22591 1.40987,-0.51151 2.11511,-0.76229 1.96981,-0.70118 3.94498,-1.47196 5.93943,-2.32737 0.85191,-0.36659 1.70318,-0.7431 2.55844,-1.13456 2.0436,-0.94039 4.08593,-1.97515 6.13892,-3.0746 0.67283,-0.3647 1.34829,-0.6897 2.01516,-1.06924 2.69269,-1.51349 5.37221,-3.15103 8.04782,-4.92266 0.5342,-0.35333 1.05052,-0.75117 1.57941,-1.1094 2.14279,-1.47296 4.27567,-3.02034 6.39271,-4.65696 0.84748,-0.65962 1.6837,-1.33901 2.52522,-2.01347 1.87086,-1.51979 3.72254,-3.10397 5.55038,-4.7475 0.77524,-0.69859 1.56168,-1.37746 2.33028,-2.10084 2.52213,-2.36117 5.00851,-4.81139 7.4154,-7.40979 l 13.93949,-15.0487 3.10757,2.87852 2.43377,36.80453 c 0.12343,1.86654 0.98251,3.64093 2.38782,4.94265 l 111.01361,102.83103 c -30.57162,30.55776 -58.33834,35.1005 -73.07557,25.51314 L 448.00912,371.01012 Z M 400,475.66362 389.73864,466.1586 c -3.01743,-2.79501 -3.3267,-7.39677 -0.6782,-10.25602 l 60.25113,-65.04551 21.21212,19.64862 -27.87899,30.09741 -32.37214,34.94809 c -2.64385,2.85424 -7.25514,2.90745 -10.27256,0.11243 z m 25.37179,4.86118 18.58598,-20.06493 53.03029,49.12153 -18.58598,20.06494 z m 62.02951,103.22918 c -2.7879,3.00974 -7.64326,3.06054 -10.82508,0.11324 l -9.66743,-8.95486 c -3.18181,-2.94729 -3.5022,-7.79234 -0.7143,-10.80208 l 13.5306,-14.60727 37.17198,-40.12987 18.17709,-19.62351 c 2.7879,-3.00973 7.64328,-3.06053 10.82509,-0.11324 l 9.66742,8.95486 c 3.18183,2.9473 3.50221,7.79235 0.71431,10.80209 z"
   inkscape:connector-curvature="0"
   style="stroke-width:1.00000012"
   sodipodi:nodetypes="csscccscccccccsscsssccssssccccccccccccccccccccccccccccscccccccccccccscccsssccscscccccccccccccccccccscccccccsccccccccccscsscccssss" /><ellipse
   id="circle848"
   cy="-59.613163"
   cx="566.32086"
   style="stroke-width:1.00000012"
   rx="7.2285113"
   ry="6.8375826"
   transform="rotate(42.808694)" /><ellipse
   id="circle850"
   cy="-59.613163"
   cx="537.40686"
   style="stroke-width:1.00000012"
   rx="7.2285113"
   ry="6.8375826"
   transform="rotate(42.808694)" /><ellipse
   id="circle852"
   cy="-59.613163"
   cx="508.49283"
   style="stroke-width:1.00000012"
   rx="7.2285113"
   ry="6.8375826"
   transform="rotate(42.808694)" /></svg>