<svg id="Layer_1" enable-background="new 0 0 32 32" height="512" viewBox="0 0 32 32" width="512" xmlns="http://www.w3.org/2000/svg"><path d="m13.1302 22.3729c1.1197-.7097 1.8698-1.9516 1.8698-3.3729 0-2.2061-1.7944-4-4-4s-4 1.7939-4 4c0 1.4213.7501 2.6632 1.8698 3.3729-1.5544.5363-2.9042 1.6332-3.7433 3.1408-.269.4824-.0952 1.0918.3872 1.3604.4829.2695 1.0923.0947 1.3599-.3877.8539-1.5333 2.435-2.4864 4.1264-2.4864s3.2725.9531 4.1265 2.4863c.2605.4677.8816.6519 1.3599.3877.4824-.2686.6562-.8779.3872-1.3604-.8391-1.5075-2.189-2.6044-3.7434-3.1407zm-2.1302-5.3729c1.103 0 2 .8975 2 2s-.897 2-2 2-2-.8975-2-2 .897-2 2-2z"/><path d="m28 6c-2.6667 0-5.3333 0-8 0v-3c0-1.1025-.897-2-2-2h-4c-1.103 0-2 .8975-2 2v3c-2.6667 0-5.3333 0-8 0-1.6543 0-3 1.3457-3 3v19c0 1.6543 1.3457 3 3 3h24c1.6543 0 3-1.3457 3-3v-19c0-1.6543-1.3457-3-3-3zm-14-3h4l.0015 3.9927c0 .0026-.0015.0047-.0015.0073h-4zm-1.7217 5c.3469.5948.9847 1 1.7217 1h4c.737 0 1.3748-.4052 1.7217-1h1.2783v2c0 .5518-.4487 1-1 1h-8c-.5513 0-1-.4482-1-1v-2zm16.7217 20c0 .5518-.4487 1-1 1h-24c-.5513 0-1-.4482-1-1v-19c0-.5518.4487-1 1-1h5v2c0 1.6543 1.3457 3 3 3h8c1.6543 0 3-1.3457 3-3v-2h5c.5513 0 1 .4482 1 1z"/><path d="m26 16h-7c-.5522 0-1 .4473-1 1s.4478 1 1 1h7c.5522 0 1-.4473 1-1s-.4478-1-1-1z"/><path d="m26 20h-6c-.5522 0-1 .4473-1 1s.4478 1 1 1h6c.5522 0 1-.4473 1-1s-.4478-1-1-1z"/><path d="m26 24h-5c-.5522 0-1 .4473-1 1s.4478 1 1 1h5c.5522 0 1-.4473 1-1s-.4478-1-1-1z"/></svg>