<?xml version="1.0" encoding="UTF-8" standalone="no"?>
<!-- Generator: Adobe Illustrator 16.0.0, SVG Export Plug-In . SVG Version: 6.00 Build 0)  -->

<svg
   xmlns:dc="http://purl.org/dc/elements/1.1/"
   xmlns:cc="http://creativecommons.org/ns#"
   xmlns:rdf="http://www.w3.org/1999/02/22-rdf-syntax-ns#"
   xmlns:svg="http://www.w3.org/2000/svg"
   xmlns="http://www.w3.org/2000/svg"
   xmlns:sodipodi="http://sodipodi.sourceforge.net/DTD/sodipodi-0.dtd"
   xmlns:inkscape="http://www.inkscape.org/namespaces/inkscape"
   version="1.1"
   id="Layer_1"
   x="0px"
   y="0px"
   width="612px"
   height="612px"
   viewBox="0 0 612 612"
   style="enable-background:new 0 0 612 612;"
   xml:space="preserve"
   sodipodi:docname="camera_time.svg"
   inkscape:version="0.92.4 (5da689c313, 2019-01-14)"><metadata
   id="metadata39"><rdf:RDF><cc:Work
       rdf:about=""><dc:format>image/svg+xml</dc:format><dc:type
         rdf:resource="http://purl.org/dc/dcmitype/StillImage" /><dc:title></dc:title></cc:Work></rdf:RDF></metadata><defs
   id="defs37" /><sodipodi:namedview
   pagecolor="#ffffff"
   bordercolor="#666666"
   borderopacity="1"
   objecttolerance="10"
   gridtolerance="10"
   guidetolerance="10"
   inkscape:pageopacity="0"
   inkscape:pageshadow="2"
   inkscape:window-width="3840"
   inkscape:window-height="2066"
   id="namedview35"
   showgrid="true"
   inkscape:zoom="0.38562092"
   inkscape:cx="1.2966102"
   inkscape:cy="306"
   inkscape:window-x="2869"
   inkscape:window-y="-11"
   inkscape:window-maximized="1"
   inkscape:current-layer="Layer_1"><inkscape:grid
     type="xygrid"
     id="grid915" /></sodipodi:namedview>
<path
   d="m 342.68929,269.31072 c -37.47351,-37.47286 -87.29512,-58.10965 -140.28982,-58.10965 -52.99471,0 -102.816313,20.63679 -140.289822,58.10965 C 24.638083,306.78423 4,356.60583 4,409.60054 4,462.59524 24.638083,512.41685 62.109648,549.89036 99.583157,587.36322 149.40476,608 202.39947,608 c 52.9947,0 102.81631,-20.63678 140.28982,-58.10964 37.47221,-37.47351 58.10964,-87.29512 58.10964,-140.28982 0,-52.99471 -20.63743,-102.81631 -58.10964,-140.28982 z m -8.78664,271.79235 c -35.12578,35.12644 -81.82811,54.47103 -131.50318,54.47103 -49.67508,0 -96.37741,-19.34459 -131.503838,-54.47103 -35.125134,-35.12513 -54.469731,-81.82746 -54.469731,-131.50253 0,-49.67508 19.344597,-96.37741 54.469731,-131.50254 35.126428,-35.12643 81.828758,-54.47103 131.503838,-54.47103 49.67507,0 96.3774,19.3446 131.50318,54.47103 35.12579,35.12513 54.47038,81.82746 54.47038,131.50254 0,49.67507 -19.34459,96.3774 -54.47038,131.50253 z M 208.61209,290.31253 h -12.4259 v -33.13595 h 12.4259 z m -12.4259,238.57601 h 12.4259 v 33.1353 h -12.4259 z M 83.111463,415.81316 H 49.97551 v -12.4259 h 33.135305 v 12.4259 z m 271.711957,-12.4259 v 12.4259 h -33.1353 v -12.4259 z m -224.07728,-105.46228 -9.94072,-17.21732 10.7609,-6.21327 9.94072,17.21731 z m 143.29628,223.36149 9.94072,17.21731 -10.76155,6.21263 -9.94072,-17.21731 z m -189.540864,-50.79221 6.213275,10.7609 -17.217313,9.94072 -6.213275,-10.7609 z M 320.29284,348.70163 314.07956,337.94072 331.29753,328 l 6.21262,10.7609 z m -46.24782,-50.78249 -10.76091,-6.21327 9.94072,-17.21732 10.76091,6.21328 z m -143.29564,223.36863 10.7609,6.21262 -9.94072,17.21796 -10.7609,-6.21327 z m 189.55059,-50.78962 17.21796,9.94072 -6.21327,10.7609 -17.21732,-9.94072 z M 73.505298,328.01167 90.722611,337.95239 84.509336,348.7133 67.292023,338.77258 Z M 221.8666,409.60054 c 0,-8.56165 -5.55842,-15.84473 -13.25451,-18.44467 V 303.5664 h -12.4259 v 87.58882 c -7.69608,2.59929 -13.25386,9.88237 -13.25386,18.44467 0,10.73432 8.73282,19.46714 19.46714,19.46714 4.92757,0 9.43045,-1.8446 12.86354,-4.87376 l 75.92735,43.80479 6.20938,-10.76285 -75.91502,-43.7983 c 0.24897,-1.23903 0.38188,-2.52279 0.38188,-3.83637 z m -19.46713,7.04123 c -3.88241,0 -7.04124,-3.15883 -7.04124,-7.04123 0,-3.88241 3.15883,-7.04124 7.04124,-7.04124 3.8824,0 7.04123,3.15883 7.04123,7.04124 0,3.8824 -3.15883,7.04123 -7.04123,7.04123 z m 0,-172.3054 c -91.12695,0 -165.264166,74.13722 -165.264166,165.26417 0,91.12695 74.136566,165.26416 165.264166,165.26416 91.12695,0 165.26416,-74.13721 165.26416,-165.26416 0,-91.12695 -74.13721,-165.26417 -165.26416,-165.26417 z m 0,318.10243 c -84.27504,0 -152.838264,-68.56388 -152.838264,-152.83826 0,-84.27439 68.563224,-152.83826 152.838264,-152.83826 84.27503,0 152.83826,68.56387 152.83826,152.83826 0,84.27438 -68.56323,152.83826 -152.83826,152.83826 z"
   id="path2"
   inkscape:connector-curvature="0"
   style="stroke-width:1" />
<g
   id="g4">
</g>
<g
   id="g6">
</g>
<g
   id="g8">
</g>
<g
   id="g10">
</g>
<g
   id="g12">
</g>
<g
   id="g14">
</g>
<g
   id="g16">
</g>
<g
   id="g18">
</g>
<g
   id="g20">
</g>
<g
   id="g22">
</g>
<g
   id="g24">
</g>
<g
   id="g26">
</g>
<g
   id="g28">
</g>
<g
   id="g30">
</g>
<g
   id="g32">
</g>
<g
   id="g913"
   transform="matrix(7.2285113,0,0,6.8375828,135.92596,-26.09185)"
   style="stroke-width:0.14224084"><g
     id="g854"
     style="stroke-width:0.14224084">
	<path
   id="path846"
   d="M 56.963,32.026 H 55.14 c -1.703,0 -3.088,1.385 -3.088,3.088 v 3.912 h -10 v -6.219 c 3.646,-1.177 5.957,-6.052 5.957,-12.781 0,-7.235 -2.669,-12.333 -6.8,-12.988 C 41.157,7.03 41.105,7.026 41.052,7.026 h -40 C 0.571,7.026 0.159,7.369 0.07,7.842 H 0.069 c -0.02,0.107 -0.472,2.648 1.243,4.714 1.138,1.371 2.92,2.169 5.292,2.395 -0.357,1.59 -0.552,3.31 -0.552,5.075 0,7.29 3.075,13 7,13 h 21 v 12.967 c 0,1.672 1.36,3.033 3.033,3.033 h 1.935 c 1.308,0 2.415,-0.837 2.84,-2 h 10.193 v 2.912 c 0,1.703 1.385,3.088 3.088,3.088 h 1.823 c 1.703,0 3.088,-1.385 3.088,-3.088 V 35.114 c -10e-4,-1.703 -1.386,-3.088 -3.089,-3.088 z m -15.996,-23 c 2.397,0.436 4.788,3.683 5.018,10 H 25.465 L 21.758,15.319 C 21.57,15.131 21.316,15.026 21.051,15.026 h -2 -0.349 -3.985 -1.07 c -0.009,-0.014 -0.02,-0.028 -0.029,-0.042 -0.102,-0.164 -0.216,-0.329 -0.34,-0.495 -0.067,-0.09 -0.142,-0.18 -0.215,-0.27 -0.033,-0.041 -0.064,-0.082 -0.098,-0.123 -0.04,-0.047 -0.081,-0.094 -0.123,-0.141 -0.044,-0.05 -0.08,-0.099 -0.125,-0.149 C 12.7,13.787 12.678,13.774 12.659,13.756 12.547,13.635 12.43,13.514 12.307,13.392 12.228,13.314 12.148,13.237 12.066,13.16 11.867,12.974 11.657,12.787 11.433,12.6 11.253,12.449 11.065,12.302 10.875,12.155 10.788,12.088 10.702,12.021 10.612,11.954 9.099,10.823 7.347,9.82 5.766,9.026 Z m -26.916,9.666 c 0,2.09 -0.6,3.471 -1,4.073 -0.4,-0.603 -1,-1.983 -1,-4.073 0,-0.806 0.087,-1.489 0.21,-2.053 0.004,0.006 0.012,0.008 0.017,0.013 0.084,0.103 0.186,0.184 0.302,0.246 0.025,0.013 0.049,0.023 0.076,0.034 0.124,0.054 0.255,0.092 0.396,0.092 h 0.862 c 0.091,0.534 0.137,1.092 0.137,1.668 z M 2.864,11.296 C 2.382,10.722 2.168,10.078 2.073,9.523 3.581,10.171 5.582,11.129 7.427,12.239 7.329,12.485 7.239,12.74 7.151,12.998 5.147,12.87 3.708,12.299 2.864,11.296 Z m 5.187,8.73 c 0,-2.422 0.382,-4.745 1.086,-6.671 0.02,0.014 0.04,0.028 0.06,0.042 0.617,0.445 1.133,0.879 1.576,1.303 -0.351,0.861 -0.723,2.197 -0.723,3.992 0,3.374 1.402,6.333 3,6.333 1.598,0 3,-2.959 3,-6.333 0,-0.571 -0.048,-1.125 -0.124,-1.667 h 1.92 c 0.135,0.988 0.204,1.994 0.204,3 0,6.195 -2.688,11 -5,11 -2.363,0.001 -4.999,-4.517 -4.999,-10.999 z m 8.673,11 c 0.028,-0.033 0.053,-0.075 0.081,-0.109 0.191,-0.231 0.376,-0.479 0.554,-0.742 0.03,-0.044 0.061,-0.082 0.091,-0.127 0.205,-0.313 0.399,-0.65 0.585,-1.003 0.05,-0.094 0.095,-0.195 0.143,-0.292 0.134,-0.271 0.262,-0.55 0.384,-0.84 0.052,-0.124 0.103,-0.249 0.153,-0.376 0.119,-0.304 0.229,-0.618 0.334,-0.94 0.034,-0.106 0.072,-0.208 0.104,-0.315 0.131,-0.43 0.249,-0.872 0.354,-1.328 0.021,-0.091 0.036,-0.185 0.056,-0.276 0.079,-0.371 0.15,-0.749 0.211,-1.135 0.024,-0.155 0.045,-0.311 0.067,-0.467 0.047,-0.349 0.086,-0.703 0.117,-1.061 0.013,-0.152 0.029,-0.303 0.039,-0.457 0.034,-0.504 0.056,-1.014 0.056,-1.532 v -3 h 0.586 l 3.707,3.707 c 0.188,0.188 0.442,0.293 0.707,0.293 h 20.934 c -0.23,6.317 -2.621,9.564 -5.018,10 h -6.916 z m 22.295,16 h -1.935 c -0.569,0 -1.033,-0.463 -1.033,-1.033 V 33.026 h 4 v 6 6.967 c 0,0.569 -0.463,1.033 -1.032,1.033 z m 3.032,-2 v -4 h 10 v 4 z m 16,4.911 c 0,0.6 -0.488,1.088 -1.088,1.088 H 55.14 c -0.6,0 -1.088,-0.488 -1.088,-1.088 v -2.912 -8 -3.912 c 0,-0.6 0.488,-1.088 1.088,-1.088 h 1.823 c 0.6,0 1.088,0.488 1.088,1.088 z"
   inkscape:connector-curvature="0"
   style="stroke-width:0.14224084" />
	<circle
   id="circle848"
   r="1"
   cy="27.025999"
   cx="32.050999"
   style="stroke-width:0.14224084" />
	<circle
   id="circle850"
   r="1"
   cy="27.025999"
   cx="28.051001"
   style="stroke-width:0.14224084" />
	<circle
   id="circle852"
   r="1"
   cy="27.025999"
   cx="24.051001"
   style="stroke-width:0.14224084" />
</g><g
     id="g856"
     style="stroke-width:0.14224084">
</g><g
     id="g858"
     style="stroke-width:0.14224084">
</g><g
     id="g860"
     style="stroke-width:0.14224084">
</g><g
     id="g862"
     style="stroke-width:0.14224084">
</g><g
     id="g864"
     style="stroke-width:0.14224084">
</g><g
     id="g866"
     style="stroke-width:0.14224084">
</g><g
     id="g868"
     style="stroke-width:0.14224084">
</g><g
     id="g870"
     style="stroke-width:0.14224084">
</g><g
     id="g872"
     style="stroke-width:0.14224084">
</g><g
     id="g874"
     style="stroke-width:0.14224084">
</g><g
     id="g876"
     style="stroke-width:0.14224084">
</g><g
     id="g878"
     style="stroke-width:0.14224084">
</g><g
     id="g880"
     style="stroke-width:0.14224084">
</g><g
     id="g882"
     style="stroke-width:0.14224084">
</g><g
     id="g884"
     style="stroke-width:0.14224084">
</g></g></svg>