<?xml version="1.0" encoding="iso-8859-1"?>
<!-- Generator: Adobe Illustrator 19.0.0, SVG Export Plug-In . SVG Version: 6.00 Build 0)  -->
<svg version="1.1" id="Capa_1" xmlns="http://www.w3.org/2000/svg" xmlns:xlink="http://www.w3.org/1999/xlink" x="0px" y="0px"
	 viewBox="0 0 511.999 511.999" style="enable-background:new 0 0 511.999 511.999;" xml:space="preserve">
<g>
	<g>
		<path d="M329.689,448.409c-3.396-2.36-8.062-1.52-10.422,1.878c-12.934,18.619-31.247,33.111-51.565,40.807
			c-18.919,7.166-38.296,7.781-53.161,1.691c-13.152-5.389-36.742-18.477-46.974-45.592c-9.514-25.209-5.349-56.122,12.376-91.879
			c35.283-71.175,18.052-116.437,17.297-118.339c-0.136-0.341-13.595-34.603-15.299-75.589c-0.172-4.132-3.681-7.36-7.792-7.17
			c-4.132,0.172-7.342,3.661-7.17,7.792c1.815,43.644,15.758,79.03,16.347,80.502c0.16,0.401,15.554,40.892-16.799,106.154
			c-19.647,39.632-24.011,74.561-12.97,103.818c9.067,24.028,28.709,43.264,55.307,54.162c8.86,3.63,18.482,5.356,28.414,5.356
			c33.855,0,71.292-20.064,94.29-53.169C333.926,455.435,333.085,450.769,329.689,448.409z"/>
	</g>
</g>
<g>
	<g>
		<path d="M484.038,98.906c-18.154-41.016-49.506-71.231-88.281-85.078C353.456-1.282,311.833-4.069,275.392,5.764
			c-37.474,10.112-68.029,33.201-88.359,66.773c-10.558,17.434-17.061,38.003-19.33,61.139c-0.403,4.115,2.606,7.779,6.721,8.183
			c4.123,0.404,7.779-2.606,8.183-6.721c2.048-20.888,7.846-39.339,17.235-54.842C236.86,19.165,310.002-0.899,390.721,27.93
			c34.87,12.454,63.148,39.812,79.623,77.036c15.714,35.503,18.077,75.334,6.166,103.95c-16.342,39.264-45.632,69.924-73.958,99.572
			c-29.606,30.99-57.57,60.259-63.891,94.661c-1.649,8.974-4.233,17.665-7.68,25.833c-1.607,3.81,0.178,8.203,3.988,9.81
			c0.95,0.401,1.938,0.591,2.908,0.591c2.92,0,5.696-1.719,6.903-4.579c3.869-9.168,6.765-18.908,8.611-28.949
			c5.513-29.998,30.759-56.425,59.991-87.022c27.91-29.213,59.542-62.323,76.956-104.163
			C503.771,182.393,501.357,138.034,484.038,98.906z"/>
	</g>
</g>
<g>
	<g>
		<path d="M391.132,75.594c-35.453-21.371-80.598-22.053-115.013-1.741c-3.561,2.102-4.744,6.693-2.643,10.254
			c2.103,3.56,6.693,4.745,10.255,2.642c29.742-17.556,68.863-16.9,99.668,1.669c26.588,16.027,41.056,41.699,39.695,70.434
			c-0.196,4.133,2.993,7.641,7.125,7.836c0.121,0.005,0.241,0.008,0.36,0.008c3.973,0,7.283-3.123,7.474-7.133
			C439.684,125.158,422.582,94.553,391.132,75.594z"/>
	</g>
</g>
<g>
	<g>
		<path d="M390.005,220.05c-2.087-32.893-20.394-61.53-47.778-74.738c-16.659-8.035-50.063-16.64-94.505,9.349
			c0.927-18.375,5.625-37.91,18.381-53.086c2.656-3.166,2.246-7.889-0.919-10.55c-3.166-2.661-7.889-2.251-10.55,0.914
			c-15.57,18.524-23.121,44.874-21.974,76.349c-0.004,0.242,0.009,0.482,0.029,0.726c0.039,0.965,0.059,1.92,0.115,2.894
			c1.394,24.475,7.365,43.258,7.619,44.046c0.011,0.033,0.029,0.062,0.04,0.095c0.122,0.362,0.266,0.713,0.437,1.045
			c0.01,0.019,0.022,0.038,0.032,0.057c0.185,0.349,0.394,0.681,0.628,0.993c0.003,0.004,0.006,0.008,0.009,0.012
			c0.239,0.316,0.503,0.609,0.787,0.882c0.015,0.014,0.029,0.028,0.044,0.042c0.873,0.828,1.935,1.439,3.102,1.773
			c0.006,0.002,0.012,0.003,0.018,0.005c0.383,0.109,0.776,0.188,1.178,0.235c0.021,0.002,0.042,0.003,0.063,0.006
			c0.393,0.042,0.792,0.058,1.196,0.036c0.006,0,0.012,0.001,0.018,0.001c0.001,0,0.019-0.001,0.023-0.001c0.003,0,0.005,0,0.008,0
			c0.364-0.018,8.595-0.357,16.656,2.581c9.704,3.537,14.687,10.11,15.232,20.092c1.234,22.593-31.436,25.054-32.827,25.148
			c-4.119,0.269-7.246,3.822-6.986,7.944c0.251,3.967,3.545,7.017,7.466,7.017c0.159,0,0.318-0.005,0.479-0.015
			c16.909-1.067,48.455-10.991,46.821-40.911c-0.576-10.556-4.497-19.145-11.653-25.53c-9.229-8.234-21.643-10.526-29.252-11.123
			l-5.641-34.416c42.105-27.657,72.703-20.217,87.419-13.121c22.521,10.861,37.593,34.694,39.338,62.197
			c1.095,17.266-7.632,34.715-26.68,53.343c-2.956,2.891-3.009,7.633-0.118,10.589c1.467,1.5,3.409,2.252,5.353,2.252
			c1.889,0,3.779-0.71,5.236-2.135C381.202,263.189,391.393,241.928,390.005,220.05z"/>
	</g>
</g>
<g>
	<g>
		<path d="M340.462,291.569c-2.546-3.257-7.251-3.834-10.511-1.288c-7.537,5.891-14.958,11.129-21.505,15.75
			c-3.447,2.433-6.703,4.731-9.529,6.813c-11.981,8.828-16.037,23.572-19.959,37.83c-5.796,21.069-9.976,32.94-28.579,31.806
			c-6.687-0.405-11.208-2.683-14.224-7.167c-9.218-13.704-2.094-43.759,1.432-54.191c1.33-3.916-0.767-8.169-4.681-9.499
			c-3.914-1.327-8.168,0.768-9.498,4.683c-1.544,4.548-14.655,45.066,0.309,67.347c5.595,8.331,14.502,13.094,25.757,13.776
			c1.162,0.07,2.286,0.105,3.382,0.105c28.739-0.003,35.265-23.705,40.541-42.887c3.394-12.341,6.601-23.997,14.403-29.746
			c2.703-1.992,5.897-4.246,9.28-6.633c6.688-4.72,14.268-10.071,22.093-16.188C342.432,299.533,343.009,294.828,340.462,291.569z"
			/>
	</g>
</g>
<g>
	<g>
		<path d="M25.69,209.085c-3.001-2.845-7.74-2.721-10.586,0.279c-2.846,3-2.722,7.74,0.28,10.586
			c9.74,9.239,15.555,24.871,15.555,41.813c0,16.942-5.815,32.573-15.555,41.813c-3,2.846-3.125,7.586-0.279,10.586
			c1.473,1.552,3.45,2.334,5.433,2.334c1.85,0,3.704-0.682,5.152-2.056c12.663-12.014,20.224-31.707,20.224-52.678
			C45.914,240.792,38.353,221.099,25.69,209.085z"/>
	</g>
</g>
<g>
	<g>
		<path d="M62.268,176.207c-2.999-2.846-7.739-2.722-10.586,0.279c-2.845,3-2.721,7.739,0.28,10.585
			c17.536,16.636,28.005,44.557,28.005,74.692c0,30.134-10.469,58.056-28.005,74.691c-3,2.846-3.125,7.586-0.28,10.586
			c1.473,1.552,3.451,2.334,5.433,2.334c1.851,0,3.704-0.682,5.153-2.056c20.459-19.409,32.673-51.392,32.673-85.555
			C94.942,227.599,82.728,195.616,62.268,176.207z"/>
	</g>
</g>
<g>
	<g>
		<path d="M100.849,146.342c-3-2.846-7.739-2.721-10.586,0.28c-2.846,3-2.722,7.74,0.28,10.586
			c24.617,23.352,39.313,62.439,39.313,104.556c0,42.118-14.696,81.204-39.313,104.557c-3,2.846-3.125,7.586-0.28,10.586
			c1.473,1.552,3.451,2.334,5.434,2.334c1.85,0,3.704-0.682,5.152-2.056c27.54-26.126,43.983-69.274,43.983-115.421
			S128.389,172.467,100.849,146.342z"/>
	</g>
</g>
<g>
</g>
<g>
</g>
<g>
</g>
<g>
</g>
<g>
</g>
<g>
</g>
<g>
</g>
<g>
</g>
<g>
</g>
<g>
</g>
<g>
</g>
<g>
</g>
<g>
</g>
<g>
</g>
<g>
</g>
</svg>
